<svg xmlns="http://www.w3.org/2000/svg" viewBox="0 0 298.392 402.48">
  <text xml:space="preserve" fill="#27211f" font-family="Open Sans" font-size="68.354" font-weight="400" style="-inkscape-font-specification:OpenSans" transform="matrix(1.333 0 0 1.331 -88.19 755.804)"><tspan x="0 42.253 59.543 100.829 118.584 168.348 196.251 234.266 276.22 318.108" y="0">Rio Grande</tspan><tspan x="79.384 121.271 162.558 180.314 217.828 259.782" y="82.025">do Sul</tspan></text>
  <path fill="#399c3c" d="M195.073 82.5c0 4.628-3.854 8.481-8.476 8.481H117.2c-4.625 0-8.481-3.853-8.481-8.481V13.11c0-4.627 3.856-8.482 8.481-8.482h69.397c4.622 0 8.476 3.855 8.476 8.483V82.5m103.319 0c0 4.628-3.863 8.481-8.48 8.481h-69.388c-4.636 0-8.49-3.853-8.49-8.481V13.11c0-4.627 3.854-8.482 8.49-8.482h69.388c4.617 0 8.48 3.855 8.48 8.483V82.5m0 207.407c0 4.629-3.863 8.482-8.48 8.482h-69.388c-4.636 0-8.49-3.853-8.49-8.482v-69.39c0-4.628 3.854-8.481 8.49-8.481h69.388c4.617 0 8.48 3.853 8.48 8.481v69.39M90.987 185.816c0 4.628-3.858 8.481-8.483 8.481H13.111c-4.628 0-8.482-3.853-8.482-8.481v-69.39c0-4.627 3.854-8.482 8.482-8.482h69.393c4.625 0 8.483 3.855 8.483 8.483v69.389m104.086 0c0 4.628-3.854 8.481-8.476 8.481H117.2c-4.625 0-8.481-3.853-8.481-8.481v-69.39c0-4.627 3.856-8.482 8.481-8.482h69.397c4.622 0 8.476 3.855 8.476 8.483v69.389M90.987 289.907c0 4.629-3.858 8.482-8.483 8.482H13.111c-4.628 0-8.482-3.853-8.482-8.482v-69.39c0-4.628 3.854-8.481 8.482-8.481h69.393c4.625 0 8.483 3.853 8.483 8.481v69.39m104.086 0c0 4.629-3.854 8.482-8.476 8.482H117.2c-4.625 0-8.481-3.853-8.481-8.482v-69.39c0-4.628 3.856-8.481 8.481-8.481h69.397c4.622 0 8.476 3.853 8.476 8.481v69.39M90.987 393.997c0 4.63-3.858 8.483-8.483 8.483H13.111c-4.628 0-8.482-3.853-8.482-8.483v-69.394c0-4.623 3.854-8.482 8.482-8.482h69.393c4.625 0 8.483 3.859 8.483 8.482v69.394m104.086 0c0 4.63-3.854 8.483-8.476 8.483H117.2c-4.625 0-8.481-3.853-8.481-8.483v-69.394c0-4.623 3.856-8.482 8.481-8.482h69.397c4.622 0 8.476 3.859 8.476 8.482v69.394"/>
  <path fill="#ca1e25" d="M95.61 47.804c0 26.213-21.587 47.807-47.803 47.807C21.593 95.61 0 74.017 0 47.804 0 21.585 21.593 0 47.807 0 74.023 0 95.61 21.585 95.61 47.804"/>
  <text xml:space="preserve" fill="#27211f" font-family="Open Sans" font-size="90.588" font-weight="700" style="-inkscape-font-specification:OpenSans-Bold" transform="matrix(1.333 0 0 1.331 -172.142 548.984)"><tspan x="0 30.121 103.767 154.081 206.54 236.53 289.049 357.981 410.116" y="0">INSTITUTO</tspan><tspan x="45.011 94.826 145.56 212.616 263.35 323.635 386.194" y="77.726">FEDERAL</tspan></text>
</svg>
