<?xml version="1.0" standalone="no"?>
<!DOCTYPE svg PUBLIC "-//W3C//DTD SVG 20010904//EN"
 "http://www.w3.org/TR/2001/REC-SVG-20010904/DTD/svg10.dtd">
<svg version="1.0" xmlns="http://www.w3.org/2000/svg"
 width="16.000000pt" height="16.000000pt" viewBox="0 0 16.000000 16.000000"
 preserveAspectRatio="xMidYMid meet">
<metadata>
Created by potrace 1.11, written by Peter Selinger 2001-2013
</metadata>
<g transform="translate(0.000000,16.000000) scale(0.001600,-0.001600)"
fill="#000000" stroke="none">
<path d="M2286 9974 c-233 -42 -451 -154 -615 -316 -163 -162 -259 -328 -318
-548 -25 -96 -28 -120 -28 -285 0 -165 3 -189 28 -284 76 -285 247 -527 486
-686 289 -192 641 -245 980 -148 289 83 568 316 705 591 352 704 -71 1541
-848 1677 -108 18 -284 18 -390 -1z"/>
<path d="M4192 9770 c-18 -4 -45 -18 -59 -31 -56 -53 -53 -1 -53 -1021 0
-1052 -4 -986 69 -1035 l34 -23 953 0 c945 0 953 0 988 21 21 12 43 38 56 63
20 43 20 49 18 987 l-3 944 -23 33 c-52 71 17 67 -1017 69 -511 0 -945 -2
-963 -7z"/>
<path d="M6692 9740 c-18 -11 -41 -34 -52 -52 -20 -32 -20 -53 -20 -983 0
-1075 -6 -997 80 -1042 l43 -23 931 0 932 0 44 23 c33 16 51 34 68 67 l22 44
0 926 0 926 -22 44 c-13 25 -38 55 -57 67 l-34 23 -951 0 c-931 0 -952 0 -984
-20z"/>
<path d="M1613 7199 c-30 -15 -48 -33 -62 -63 -21 -42 -21 -55 -21 -976 0
-913 0 -935 20 -975 13 -26 34 -49 59 -63 l39 -22 941 0 c1031 0 966 -4 1026
60 l30 31 3 958 2 958 -22 33 c-13 18 -36 43 -51 54 -28 21 -32 21 -975 24
-943 2 -947 2 -989 -19z"/>
<path d="M4165 7206 c-38 -17 -60 -41 -80 -89 -13 -32 -15 -151 -15 -955 0
-661 3 -929 11 -953 7 -19 21 -45 33 -57 48 -54 2 -52 1016 -52 1050 0 986 -4
1036 69 l24 36 0 954 c0 951 0 954 -21 988 -12 18 -38 42 -60 53 -37 19 -62
20 -976 20 -756 -1 -944 -3 -968 -14z"/>
<path d="M1620 4658 c-24 -13 -53 -36 -64 -51 -21 -28 -21 -37 -24 -978 -2
-930 -2 -950 18 -988 10 -21 35 -48 53 -60 34 -21 37 -21 988 -21 l954 0 36
24 c73 50 69 -13 69 1030 0 1007 2 975 -51 1022 -13 12 -39 26 -58 33 -24 8
-293 11 -955 11 l-922 0 -44 -22z"/>
<path d="M4175 4665 c-48 -17 -80 -52 -94 -103 -15 -50 -15 -1843 -1 -1894 6
-21 27 -51 50 -72 l40 -36 958 0 c937 0 958 0 990 20 18 11 41 34 52 52 20 32
20 53 20 989 l0 955 -35 42 c-23 26 -50 45 -73 52 -24 6 -355 10 -952 10 -763
-1 -922 -3 -955 -15z"/>
<path d="M6724 4669 c-35 -10 -82 -53 -95 -87 -5 -13 -9 -447 -9 -970 0 -927
0 -948 20 -980 11 -18 34 -41 52 -52 32 -20 49 -20 995 -18 l962 3 34 33 c19
18 39 50 46 71 8 28 11 298 11 958 l0 920 -23 44 c-13 24 -39 53 -58 64 -33
20 -52 20 -969 22 -539 1 -948 -2 -966 -8z"/>
<path d="M1599 2106 c-72 -49 -69 2 -69 -1037 0 -1028 -4 -972 66 -1025 l37
-29 957 0 957 0 36 28 c72 54 67 -16 67 1029 0 899 -1 945 -19 978 -10 19 -33
45 -51 58 l-33 22 -956 0 -956 0 -36 -24z"/>
<path d="M4153 2114 c-18 -9 -43 -33 -55 -53 l-23 -36 0 -950 c0 -934 0 -951
20 -984 11 -19 40 -45 65 -58 l44 -23 941 2 942 3 36 28 c72 54 67 -17 67
1034 0 928 0 949 -20 981 -11 18 -34 41 -52 52 -32 20 -52 20 -983 20 -850 0
-953 -2 -982 -16z"/>
</g>
</svg>
